<?xml version="1.0" encoding="UTF-8" standalone="no"?>
<svg
   version="1.1"
   viewBox="0 0 787.29054 126"
   id="svg88"
   sodipodi:docname="wireguard.svg"
   width="787.29053"
   height="126"
   inkscape:version="1.2 (1:1.2.1+202207142221+cd75a1ee6d)"
   inkscape:export-filename="wireguard.png"
   inkscape:export-xdpi="60"
   inkscape:export-ydpi="60"
   xmlns:inkscape="http://www.inkscape.org/namespaces/inkscape"
   xmlns:sodipodi="http://sodipodi.sourceforge.net/DTD/sodipodi-0.dtd"
   xmlns="http://www.w3.org/2000/svg"
   xmlns:svg="http://www.w3.org/2000/svg"
   xmlns:rdf="http://www.w3.org/1999/02/22-rdf-syntax-ns#"
   xmlns:cc="http://creativecommons.org/ns#"
   xmlns:dc="http://purl.org/dc/elements/1.1/">
  <sodipodi:namedview
     id="namedview90"
     pagecolor="#ffffff"
     bordercolor="#666666"
     borderopacity="1.0"
     inkscape:showpageshadow="2"
     inkscape:pageopacity="0.0"
     inkscape:pagecheckerboard="false"
     inkscape:deskcolor="#d1d1d1"
     showgrid="false"
     inkscape:zoom="1"
     inkscape:cx="394.5"
     inkscape:cy="72.5"
     inkscape:window-width="1848"
     inkscape:window-height="1016"
     inkscape:window-x="72"
     inkscape:window-y="27"
     inkscape:window-maximized="1"
     inkscape:current-layer="svg88" />
  <defs
     id="defs4">
    <style
       id="style2">.a{fill:#88171a;}.b{fill:#231f20;}</style>
  </defs>
  <title
     id="title6">wireguard</title>
  <path
     class="a"
     d="m 169.13202,106.0374 -27.3903,-83.9958 h 10.27152 l 20.84712,64.8228 21.37968,-64.8228 h 9.35844 l 21.30366,64.6716 20.92314,-64.6716 h 9.96702 l -27.31428,83.9958 h -7.6083 l -22.1403,-67.6368 -21.91224,67.6368 h -7.68432 z"
     id="path8"
     style="stroke-width:0.42" />
  <path
     class="a"
     d="M 253.91742,106.0374 V 40.908 h 10.34754 v 65.1294 z"
     id="path10"
     style="stroke-width:0.42" />
  <path
     class="a"
     d="m 288.25242,77.658 v 28.3794 H 278.05734 V 41.2146 h 44.7384 q 9.9666,0 15.59712,4.79346 5.62968,4.79346 5.6301,13.31484 a 17.54508,17.54508 0 0 1 -4.45116,11.98302 q -4.45074,5.061 -11.6025,6.20088 l 18.03186,28.53144 h -11.03214 l -18.41238,-28.3794 h -28.30338 z m 0,-9.51048 h 34.54206 q 5.25,0 8.02704,-2.282532 2.77624,-2.282532 2.77695,-6.54318 0,-4.26006 -2.77695,-6.50496 -2.77839,-2.243472 -8.02704,-2.244564 h -34.54206 v 17.57532 z"
     id="path12"
     style="stroke-width:0.42" />
  <path
     class="a"
     d="m 353.63382,106.0374 v -64.974 h 60.942 v 9.51048 h -50.7486 v 16.2057 h 33.3249 v 9.35844 h -33.3249 v 20.54262 h 53.5626 v 9.35844 h -63.7602 z"
     id="path14"
     style="stroke-width:0.42" />
  <path
     class="a"
     d="M 489.07538,83.2902 V 70.96446 h -22.90134 v -9.66252 h 33.3249 V 86.562 q -6.0879,10.49958 -15.8634,16.09146 -9.7776,5.5923 -22.17852,5.5923 -18.87018,0 -31.1564,-12.43998 -12.28794,-12.43956 -12.28752,-31.53654 0,-19.173 12.32574,-31.61298 12.3257,-12.43956 31.11818,-12.43956 11.64072,0 21.22764,5.09754 a 41.20998,41.20998 0 0 1 15.59712,14.532 l -8.74986,6.23868 a 28.72044,28.72044 0 0 0 -11.41266,-11.79318 32.99058,32.99058 0 0 0 -16.66224,-4.2609 q -14.15148,0 -23.4339,9.70074 -9.28364,9.70032 -9.28238,24.53682 0,14.8365 9.28238,24.49902 9.28158,9.66336 23.4339,9.66252 8.82504,0 15.71136,-3.80419 6.88506,-3.80373 11.90742,-11.33664 z"
     id="path16"
     style="stroke-width:0.42" />
  <path
     class="a"
     d="m 510.87338,41.21586 h 10.19508 v 41.6178 q 0,9.35844 4.41294,12.62982 4.41168,3.27214 17.4993,3.27163 13.16196,0 17.57532,-3.27163 4.41168,-3.27029 4.41294,-12.62982 v -41.6178 h 10.11906 v 44.2806 q 0,11.94564 -7.5705,17.27124 -7.57134,5.32434 -24.68928,5.32602 -17.04402,0 -24.49902,-5.25 -7.45752,-5.25 -7.45626,-17.34726 v -44.2806 z"
     id="path18"
     style="stroke-width:0.42" />
  <path
     class="a"
     d="m 573.49538,106.0374 33.0204,-64.974 h 6.39114 l 33.3249,64.974 h -10.8801 l -8.44536,-16.5102 h -34.314 l -8.36934,16.5102 z M 597.0053,80.9298 h 25.4121 L 609.78758,56.05026 Z"
     id="path20"
     style="stroke-width:0.42" />
  <path
     class="a"
     d="m 657.53738,77.658 v 28.3794 H 647.3423 V 41.2146 h 44.7384 q 9.9666,0 15.59712,4.79346 5.62968,4.79346 5.6301,13.31484 a 17.54508,17.54508 0 0 1 -4.45116,11.98302 q -4.45074,5.061 -11.6025,6.20088 l 18.03186,28.53144 H 704.25398 L 685.8416,77.65884 h -28.30338 z m 0,-9.51048 h 34.54206 q 5.25,0 8.02704,-2.282532 2.77627,-2.282532 2.77697,-6.54318 0,-4.26006 -2.77697,-6.50496 -2.77837,-2.243472 -8.02704,-2.244564 h -34.54206 v 17.57532 z"
     id="path22"
     style="stroke-width:0.42" />
  <path
     class="a"
     d="m 751.91138,41.06382 q 15.9012,0 25.64016,9.09174 9.73812,9.093 9.73896,23.62416 0,14.68488 -9.5487,23.47212 -9.54912,8.78724 -25.83042,8.78766 h -28.83594 v -64.974 h 28.83594 z m 0.15218,9.35844 h -18.7929 v 46.2588 h 18.7929 q 11.56428,0 18.1839,-6.20088 6.6192,-6.20004 6.6192,-16.8525 0,-10.27152 -6.84768,-16.73868 -6.84768,-6.4659 -17.95584,-6.46716 z"
     id="path24"
     style="stroke-width:0.42" />
  <path
     class="a"
     d="M 125.89302,61.1352 C 125.89302,61.1352 128.80765,0 61.616209,0 2.1946093,0 0.33820929,58.6446 0.33820929,58.6446 c 0,0 -8.74061999,67.3554 62.64719971,67.3554 68.468411,0 62.907611,-64.8648 62.907611,-64.8648 z M 42.817009,39.77274 c 12.60714,-7.71288 28.71373,-2.998842 34.74871,8.59992 1.14378,2.198196 1.28915,5.58222 0.56477,7.88844 -2.50093,7.96152 -8.40588,12.42654 -16.51104,14.32326 2.38946,-2.045694 4.29156,-4.36548 4.89678,-7.5705 a 11.08884,11.08884 0 0 0 -1.90785,-8.80152 11.2392,11.2392 0 0 0 -12.94062,-3.943464 c -4.99002,1.894662 -7.72338,6.44868 -7.23072,12.04686 0.45771,5.20002 4.40328,8.5701 11.78562,9.85026 -1.10334,0.583968 -1.95313,1.014044 -2.78456,1.477224 a 26.84556,26.84556 0 0 0 -8.62848,7.50456 c -0.74924,1.01153 -1.26437,1.09301 -2.40534,0.39529 -14.84196,-9.0762 -15.79578,-31.85448 0.41255,-41.77026 z m -11.10858,56.0826 c -2.38429,0.60522 -4.69476,1.50116 -7.13202,2.30055 1.19217,-8.04342 10.6113,-15.45096 18.5766,-14.60592 a 20.53002,20.53002 0 0 0 -3.88164,10.87506 c -2.64684,0.48745 -5.14122,0.81539 -7.56294,1.4301 z m 50.73181,-78.5316 c 2.35616,0.08657 4.7166,0.05078 7.07448,0.106588 a 12.20184,12.20184 0 0 1 1.75031,0.243889 17.05494,17.05494 0 0 1 -1.779,2.281944 c -0.84294,0.785442 -1.79529,1.553412 -3.00976,0.35952 -0.29211,-0.287162 -0.98221,-0.221251 -1.49045,-0.227942 -2.34457,-0.03081 -4.69224,-0.105743 -7.03332,-0.01735 a 43.6968,43.6968 0 0 0 -6.0585,0.61866 c -0.37535,0.0674 -0.93656,1.31523 -0.76403,1.77534 0.40711,1.085826 1.00099,2.283246 1.88072,2.977716 3.25093,2.5662 6.70824,4.87032 9.97416,7.41888 3.17352,2.476572 6.12738,5.19036 7.9275,8.92626 2.34541,4.8678 2.41374,9.97206 1.4023,15.099 -1.68853,8.55876 -6.01986,15.64962 -13.03344,20.800075 -2.8261,2.07522 -6.3252,3.25294 -9.56215,4.7439 -2.84676,1.31145 -5.7771,2.44083 -8.63058,3.73834 -5.14458,2.33919 -8.03586,7.9233 -7.18536,13.72896 0.78057,5.3277 5.45454,9.77382 10.8087,10.69152 6.42265,1.10107 13.04983,-3.07285 14.62105,-9.6012 1.76681,-7.34076 -2.22172,-13.89486 -9.68731,-15.88146 -0.32874,-0.0875 -0.65872,-0.17032 -1.3445,-0.3473 1.99706,-0.89229 3.72179,-1.528 5.31426,-2.40425 q 4.16695,-2.29295 8.18202,-4.85604 c 0.78717,-0.50358 1.21246,-0.50383 1.88379,0.0765 5.1345,4.4394 8.19756,9.96156 9.05646,16.73238 1.42149,11.20728 -3.88378,21.50316 -13.89024,26.78004 -15.48121,8.16438 -34.42531,-1.12829 -37.84453,-18.29184 -2.92899,-14.70126 7.4466,-28.03668 19.93404,-30.61128 5.37054,-1.107288 10.28161,-3.343032 14.09941,-7.47894 2.46338,-2.668722 3.65753,-4.95852 4.06442,-5.99172 a 16.6173,16.6173 0 0 0 1.14286,-6.07698 14.22414,14.22414 0 0 0 -1.24546,-5.20716 c -1.30368,-2.9715 -6.2979,-7.6986 -7.53438,-8.69568 l -11.76001,-9.20682 c -0.4148,-0.341278 -0.88175,-0.31654 -1.89332,-0.247989 -1.20166,0.08144 -4.2735,0.251531 -5.59902,-0.09582 1.07226,-0.811482 3.99555,-1.992942 5.25084,-2.94294 -3.81082,-2.574474 -8.1606,-1.644636 -12.15522,-2.413362 0.92367,-1.720278 5.49402,-4.3638 8.0934,-4.65822 a 38.44386,38.44386 0 0 0 -0.70879,-4.31802 c -0.15868,-0.584514 -0.8111,-1.151136 -1.38029,-1.48491 -1.38012,-0.809214 -2.84314,-1.477014 -4.43058,-2.281734 a 9.21312,9.21312 0 0 1 4.75944,-1.47231 17.77272,17.77272 0 0 1 4.76616,0.464352 c 2.83173,0.64701 5.09208,0.224662 7.34496,-1.70016 -1.77324,-0.714084 -3.54627,-1.36647 -5.26596,-2.138094 a 51.6768,51.6768 0 0 1 -4.94718,-2.586486 c 4.46124,0.61971 8.77632,2.29257 13.33794,1.681428 q 0.0582,-0.311002 0.11646,-0.621978 c -3.41014,-0.793758 -6.82038,-1.587516 -10.59618,-2.466408 6.3168,-0.578298 12.19764,-0.67368 17.76643,2.038722 1.56702,0.763266 3.20661,1.39503 4.70862,2.266824 0.7326,0.425208 1.22581,1.263276 1.82683,1.914948 0.47737,0.51765 0.86079,1.211154 1.44732,1.523088 2.226,1.183728 4.67628,1.230222 7.17276,1.170918 0.0187,-0.284315 0.0361,-0.550788 0.055,-0.837186 2.51248,0.785106 5.3403,3.682518 5.33568,5.79852 -4.07026,0 -8.13708,-0.01554 -12.20352,0.02263 -0.43462,0.0041 -0.86629,0.321565 -1.29931,0.493668 0.41153,0.239681 0.81597,0.671748 1.23576,0.687204 z"
     id="path80"
     style="stroke-width:0.42" />
  <path
     class="a"
     d="m 77.189819,11.30052 a 0.621852,0.621852 0 0 0 -0.0795,0.994812 0.937692,0.937692 0 0 0 1.2904,0.345198 c 0.39178,-0.197618 0.77608,-0.407975 1.2495,-0.65793 -0.38131,-0.3255 -0.6872,-0.594216 -1.00199,-0.853608 -0.55356,-0.45612 -1.01262,-0.169621 -1.45841,0.171499 z"
     id="path82"
     style="stroke-width:0.42" />
  <metadata
     id="metadata196">
    <rdf:RDF>
      <cc:Work
         rdf:about="">
        <dc:title>wireguard</dc:title>
      </cc:Work>
    </rdf:RDF>
  </metadata>
</svg>
